<svg xmlns="http://www.w3.org/2000/svg" xmlns:xlink="http://www.w3.org/1999/xlink" width="521.829" height="486.525" viewBox="0 0 521.829 486.525"><defs><filter id="a" x="65.72" y="0" width="366.023" height="428.322" filterUnits="userSpaceOnUse"><feOffset dy="3" input="SourceAlpha"/><feGaussianBlur stdDeviation="3" result="b"/><feFlood flood-opacity="0.161"/><feComposite operator="in" in2="b"/><feComposite in="SourceGraphic"/></filter><filter id="c" x="101.096" y="17.798" width="420.733" height="468.727" filterUnits="userSpaceOnUse"><feOffset dy="3" input="SourceAlpha"/><feGaussianBlur stdDeviation="3" result="d"/><feFlood flood-opacity="0.161"/><feComposite operator="in" in2="d"/><feComposite in="SourceGraphic"/></filter></defs><g transform="translate(-256.537 -1256.839)"><rect width="310" height="380" rx="21" transform="translate(256.537 1286.372) rotate(-3)" fill="rgba(255,255,255,0.5)"/><g transform="matrix(1, 0, 0, 1, 256.54, 1256.84)" filter="url(#a)"><rect width="310" height="380" rx="21" transform="matrix(0.99, 0.1, -0.1, 0.99, 114.44, 6)" fill="rgba(255,255,255,0.5)"/></g><g transform="matrix(1, 0, 0, 1, 256.54, 1256.84)" filter="url(#c)"><rect width="310" height="380" rx="21" transform="matrix(0.96, 0.28, -0.28, 0.96, 214.84, 23.8)" fill="#fff"/></g><circle cx="44.5" cy="44.5" r="44.5" transform="matrix(0.966, 0.259, -0.259, 0.966, 580.034, 1312.999)" fill="#2f2f4f"/><circle cx="44.5" cy="44.5" r="44.5" transform="matrix(0.966, -0.259, 0.259, 0.966, 501.083, 1457.034)" fill="#2f2f4f"/><circle cx="44.5" cy="44.5" r="44.5" transform="translate(497.211 1562.712) rotate(30)" fill="#2f2f4f"/><text transform="matrix(0.966, 0.259, -0.259, 0.966, 586.393, 1381.996)" fill="#8495ee" font-size="56" font-family="Arial-Black, Arial" font-weight="800"><tspan x="0" y="0">1</tspan></text><text transform="matrix(0.966, -0.259, 0.259, 0.966, 541.089, 1513.607)" fill="#8495ee" font-size="56" font-family="Arial-Black, Arial" font-weight="800"><tspan x="0" y="0">2</tspan></text><text transform="translate(485.495 1631.003) rotate(30)" fill="#8495ee" font-size="56" font-family="Arial-Black, Arial" font-weight="800"><tspan x="0" y="0">3</tspan></text><line x2="295" y2="91" transform="translate(444.5 1377.5)" fill="none" stroke="#d0d0d0" stroke-width="2" stroke-dasharray="24 15"/><line x2="295" y2="91" transform="translate(405.5 1532.5)" fill="none" stroke="#d0d0d0" stroke-width="2" stroke-dasharray="24 15"/></g></svg>