<svg xmlns="http://www.w3.org/2000/svg" xmlns:xlink="http://www.w3.org/1999/xlink" width="316" height="100.5" viewBox="0 0 316 100.5"><defs><filter id="a" x="0" y="0" width="316" height="69" filterUnits="userSpaceOnUse"><feOffset input="SourceAlpha"/><feGaussianBlur stdDeviation="3" result="b"/><feFlood flood-color="#fff" flood-opacity="0.161"/><feComposite operator="in" in2="b"/><feComposite in="SourceGraphic"/></filter><filter id="c" x="66.5" y="52.5" width="170" height="48" filterUnits="userSpaceOnUse"><feOffset input="SourceAlpha"/><feGaussianBlur stdDeviation="2.5" result="d"/><feFlood flood-color="#fff" flood-opacity="0.49"/><feComposite operator="in" in2="d"/><feComposite in="SourceGraphic"/></filter></defs><g transform="translate(-792 -219)"><g transform="matrix(1, 0, 0, 1, 792, 219)" filter="url(#a)"><text transform="translate(9 50)" fill="#fff" font-size="44" font-family="Raleway-Black, Raleway" font-weight="800" letter-spacing="0.211em"><tspan x="0" y="0" xml:space="preserve">DRINK  NG</tspan></text></g><g transform="matrix(1, 0, 0, 1, 792, 219)" filter="url(#c)"><text transform="translate(74 86)" fill="#fff" font-size="27" font-family="Lovelo-LineBold, Lovelo Line" font-weight="700"><tspan x="0" y="0">CARD GAME</tspan></text></g><path d="M32.989,5.615A1.682,1.682,0,0,0,31.59,3H4.681a1.682,1.682,0,0,0-1.4,2.613L16.454,25.373V31.59H11.409v3.364H24.863V31.59H19.817V25.373Zm-4.541.748-3.364,5.045h-13.9L7.823,6.364Z" transform="translate(983.728 234.422)" fill="#fff"/></g></svg>